<svg width="88" height="36" viewBox="0 0 88 36" fill="none" xmlns="http://www.w3.org/2000/svg">
<g filter="url(#filter0_i_14357_3309)">
<path d="M86 20.6667V15.3333M16.9333 34H66.4C71.6271 34 74.2409 34 76.2373 33.4187C77.9934 32.9075 79.4214 32.0915 80.316 31.088C81.3333 29.9472 81.3333 28.4536 81.3333 25.4667V10.5333C81.3333 7.5464 81.3333 6.05291 80.316 4.91205C79.4214 3.90851 77.9934 3.09261 76.2373 2.58131C74.2409 2 71.6271 2 66.4 2H16.9333C11.7062 2 9.09259 2 7.09609 2.58131C5.33989 3.09261 3.91207 3.90851 3.01729 4.91205C2 6.05291 2 7.54637 2 10.5333V25.4667C2 28.4536 2 29.9472 3.01729 31.088C3.91207 32.0915 5.33989 32.9075 7.09609 33.4187C9.09259 34 11.7062 34 16.9333 34Z" stroke="url(#paint0_linear_14357_3309)" stroke-width="3" stroke-linecap="round" stroke-linejoin="round"/>
</g>
<defs>
<filter id="filter0_i_14357_3309" x="-0.342546" y="0.5" width="87.8425" height="35.8425" filterUnits="userSpaceOnUse" color-interpolation-filters="sRGB">
<feFlood flood-opacity="0" result="BackgroundImageFix"/>
<feBlend mode="normal" in="SourceGraphic" in2="BackgroundImageFix" result="shape"/>
<feColorMatrix in="SourceAlpha" type="matrix" values="0 0 0 0 0 0 0 0 0 0 0 0 0 0 0 0 0 0 127 0" result="hardAlpha"/>
<feOffset dx="-0.842546" dy="1.68509"/>
<feGaussianBlur stdDeviation="0.421273"/>
<feComposite in2="hardAlpha" operator="arithmetic" k2="-1" k3="1"/>
<feColorMatrix type="matrix" values="0 0 0 0 1 0 0 0 0 1 0 0 0 0 1 0 0 0 0.5 0"/>
<feBlend mode="normal" in2="shape" result="effect1_innerShadow_14357_3309"/>
</filter>
<linearGradient id="paint0_linear_14357_3309" x1="44" y1="2" x2="44" y2="34" gradientUnits="userSpaceOnUse">
<stop stop-color="#3AE2EE"/>
<stop offset="1" stop-color="#215D88"/>
</linearGradient>
</defs>
</svg>
